 http://img814.imageshack.us/img814/4138/theanniversaryatshallow.jpg

Country.......: USA
Genre.........: Horror, Thriller
Date release..: 04.11.2010 [World]
Director......: Jon D. Wagner
Writers.......: Eric Fischer, Brianna Lee Johnson
Duration......: 86 min.
More..........: http://www.imdb.com/title/tt1754589
Trailer.......:

Pilot :
Six best friends find themselves at the wrong place at the wrong time. They fight for their lives against a serial killer who has more in store for them than death. 

Cats :
Katharine Brandt   	 ...  	Lindsay
Annie Burgstede 	... 	Katie
Anthony Campanello 	... 	Jeremy
Eric Fischer 	... 	Sam
Brianna Lee Johnson 	... 	Paige
Jay Laisne 	... 	Jim
Marina Lyon 	... 	Betsey
Brick Patrick 	... 	Anthony
Jeff Perry 	... 	Cashier
Pia Pownall 	... 	Melissa
Corey Reilly 	... 	Corey
Jonathan Runyon 	... 	Chris
Mary Runyon 	... 	Stacy 

Data Technical :
!!! SAMPLE !!!
Audio.....: English
Subtitles.: None
Format                           : AVI
Format/Info                      : Audio Video Interleave
File size                        : 700 MiB
Duration                         : 1h 25mn
Overall bit rate                 : 1 145 Kbps
Writing application              : VirtualDubMod 1.5.10.2 (build 2540/release)
Writing library                  : VirtualDubMod build 2540/release
Video
ID                               : 0
Format                           : MPEG-4 Visual
Format profile                   : Advanced Simple@L5
Format settings, BVOP            : Yes
Format settings, QPel            : No
Format settings, GMC             : No warppoints
Format settings, Matrix          : Default (H.263)
Muxing mode                      : Packed bitstream
Codec ID                         : XVID
Codec ID/Hint                    : XviD
Duration                         : 1h 25mn
Bit rate                         : 1 022 Kbps
Width                            : 640 pixels
Height                           : 352 pixels
Display aspect ratio             : 16:9
Frame rate                       : 23.976 fps
Color space                      : YUV
Chroma subsampling               : 4:2:0
Bit depth                        : 8 bits
Scan type                        : Progressive
Bits/(Pixel*Frame)               : 0.189
Stream size                      : 625 MiB (89%)
Writing library                  : XviD 63
Audio
ID                               : 1
Format                           : MPEG Audio
Format version                   : Version 1
Format profile                   : Layer 3
Mode                             : Joint stereo
Mode extension                   : MS Stereo
Codec ID                         : 55
Codec ID/Hint                    : MP3
Duration                         : 1h 25mn
Bit rate mode                    : Variable
Bit rate                         : 110 Kbps
Minimum bit rate                 : 32.0 Kbps
Channel(s)                       : 2 channels
Sampling rate                    : 48.0 KHz
Stream size                      : 67.4 MiB (10%)
Alignment                        : Aligned on interleaves
Interleave, duration             : 24 ms (0.58 video frame)
Interleave, preload duration     : 256 ms
Writing library                  : LAME3.98r
Encoding settings                : -m j -V 5 -q 2 -lowpass 16.5 --vbr-new -b 32

Screen : 
http://img703.imageshack.us/img703/4138/theanniversaryatshallow.jpg 
http://img35.imageshack.us/img35/4138/theanniversaryatshallow.jpg 
http://img855.imageshack.us/img855/4138/theanniversaryatshallow.jpg 
http://img684.imageshack.us/img684/4138/theanniversaryatshallow.jpg 
http://img194.imageshack.us/img194/4138/theanniversaryatshallow.jpg